<?xml version="1.0" encoding="utf-8"?>
<!-- Generator: Adobe Illustrator 16.0.4, SVG Export Plug-In . SVG Version: 6.00 Build 0)  -->
<!DOCTYPE svg PUBLIC "-//W3C//DTD SVG 1.1//EN" "http://www.w3.org/Graphics/SVG/1.1/DTD/svg11.dtd">
<svg version="1.1" id="Layer_1" xmlns="http://www.w3.org/2000/svg" xmlns:xlink="http://www.w3.org/1999/xlink" x="0px" y="0px"
	 width="334px" height="317px" viewBox="0 0 334 317" enable-background="new 0 0 334 317" xml:space="preserve">
<g>
	<g>
		<g>
			
				<linearGradient id="SVGID_1_" gradientUnits="userSpaceOnUse" x1="353.335" y1="170.4775" x2="556.3447" y2="373.4869" gradientTransform="matrix(1 0 0 1 -224 -142)">
				<stop  offset="0" style="stop-color:#F9A03C"/>
				<stop  offset="1" style="stop-color:#F7974E"/>
			</linearGradient>
			<path fill="url(#SVGID_1_)" d="M325.163,225.057c0.144-1.396,0.248-2.807,0.327-4.228c0.098-1.679-100.999-97.599-100.999-97.599
				h-2.416C222.075,123.23,324.543,231.318,325.163,225.057z"/>
			
				<linearGradient id="SVGID_2_" gradientUnits="userSpaceOnUse" x1="201.9492" y1="204.4424" x2="381.6866" y2="384.18" gradientTransform="matrix(1 0 0 1 -224 -142)">
				<stop  offset="0" style="stop-color:#F9A03C"/>
				<stop  offset="1" style="stop-color:#F7974E"/>
			</linearGradient>
			<path fill="url(#SVGID_2_)" d="M109.47,191.783c-0.132,0.294-0.266,0.587-0.4,0.881c-0.146,0.307-0.29,0.613-0.438,0.921
				c-3.223,6.72,45.115,53.974,49.004,48.233c0.18-0.254,0.354-0.522,0.532-0.777c0.195-0.3,0.39-0.588,0.584-0.889
				C161.858,235.434,110.851,188.714,109.47,191.783z"/>
			
				<linearGradient id="SVGID_3_" gradientUnits="userSpaceOnUse" x1="268.7197" y1="269.0869" x2="450.7753" y2="451.142" gradientTransform="matrix(1 0 0 1 -224 -142)">
				<stop  offset="0" style="stop-color:#F9A03C"/>
				<stop  offset="1" style="stop-color:#F7974E"/>
			</linearGradient>
			<path fill="url(#SVGID_3_)" d="M177.778,258.234c-0.14,0.3-1.109,1.942-1.998,2.812c-0.153,0.3,47.187,47.248,47.187,47.248h4.26
				C227.233,308.296,182.793,260.219,177.778,258.234z"/>
			
				<linearGradient id="SVGID_4_" gradientUnits="userSpaceOnUse" x1="234.3516" y1="141.3604" x2="519.339" y2="426.3479" gradientTransform="matrix(1 0 0 1 -224 -142)">
				<stop  offset="0" style="stop-color:#F26D58"/>
				<stop  offset="1" style="stop-color:#F9A03C"/>
			</linearGradient>
			<path fill="url(#SVGID_4_)" d="M325.555,219.977c-2.213,49.076-42.812,88.319-92.419,88.319h-6.705l-49.54-48.802
				c4.074-5.746,7.861-11.701,11.237-17.91h45.008c14.234,0,25.818-11.578,25.818-25.818c0-14.233-11.584-25.817-25.818-25.817
				h-26.634c2.031-10.728,3.144-21.792,3.144-33.108c0-11.49-1.136-22.71-3.235-33.609h16.546l102.314,100.814
				C325.386,222.693,325.483,221.342,325.555,219.977z M31.736,4.888H4.824V71.6h26.912c47.004,0,85.249,38.235,85.249,85.24
				c0,12.788-2.854,24.926-7.919,35.824l49.098,48.377c16.121-24.12,25.543-53.078,25.543-84.201
				C183.707,73.054,115.532,4.888,31.736,4.888z"/>
			
				<linearGradient id="SVGID_5_" gradientUnits="userSpaceOnUse" x1="380.0801" y1="114.9629" x2="590.2153" y2="325.0977" gradientTransform="matrix(1 0 0 1 -224 -142)">
				<stop  offset="0" style="stop-color:#B84E51"/>
				<stop  offset="1" style="stop-color:#F68E48"/>
			</linearGradient>
			<path fill="url(#SVGID_5_)" d="M233.136,4.888H124.156c26.619,16.25,48.66,39.295,63.678,66.712h45.302
				c14.234,0,25.818,11.577,25.818,25.818c0,14.239-11.584,25.816-25.818,25.816h-10.179l102.311,100.811
				c0.242-2.736,0.395-5.484,0.395-8.279c0-22.488-8.07-43.121-21.47-59.177c13.396-16.049,21.47-36.685,21.47-59.17
				C325.659,46.399,284.158,4.888,233.136,4.888z"/>
			
				<linearGradient id="SVGID_6_" gradientUnits="userSpaceOnUse" x1="250.9961" y1="361.9131" x2="394.9047" y2="505.8218" gradientTransform="matrix(1 0 0 1 -224 -142)">
				<stop  offset="0" style="stop-color:#F9A03C"/>
				<stop  offset="1" style="stop-color:#F7974E"/>
			</linearGradient>
			<path fill="url(#SVGID_6_)" d="M226.431,308.296H124.938c20.432-12.615,38.092-29.271,51.953-48.802L226.431,308.296z
				 M158.164,241.041l-49.094-48.377c-13.563,29.148-43.12,49.422-77.334,49.422H4.824v66.706h26.912
				C84.404,308.792,130.89,281.851,158.164,241.041z"/>
		</g>
	</g>
</g>
</svg>
