<?xml version="1.0" encoding="UTF-8"?>
<svg width="75px" height="72px" viewBox="0 0 75 72" version="1.1" xmlns="http://www.w3.org/2000/svg" xmlns:xlink="http://www.w3.org/1999/xlink">
    <!-- Generator: Sketch 42 (36781) - http://www.bohemiancoding.com/sketch -->
    <title>Group</title>
    <desc>Created with Sketch.</desc>
    <defs></defs>
    <g id="Page-1" stroke="none" stroke-width="1" fill="none" fill-rule="evenodd">
        <g id="Group" transform="translate(0.000000, -1.000000)" fill-rule="nonzero" fill="#0868AC">
            <path d="M5.81,17.32 C-0.86,26.68 -0.18,38.97 4.72,49.05 L5.08,49.77 C5.16,49.92 5.23,50.08 5.31,50.23 C5.35,50.32 5.4,50.4 5.46,50.49 C5.53,50.65 5.62,50.8 5.71,50.96 C5.86,51.24 6.02,51.52 6.18,51.79 C6.26,51.94 6.35,52.09 6.44,52.24 C6.62,52.53 6.8,52.82 6.98,53.11 C7.06,53.24 7.14,53.36 7.22,53.48 C7.47,53.87 7.73,54.26 8.01,54.65 C8.01,54.66 8.03,54.67 8.03,54.68 C8.07,54.74 8.12,54.8 8.16,54.86 C8.4,55.19 8.64,55.52 8.88,55.84 C8.98,55.96 9.06,56.07 9.15,56.19 C9.37,56.47 9.59,56.75 9.82,57.03 C9.9,57.13 9.99,57.24 10.08,57.34 C10.38,57.71 10.69,58.07 11.02,58.43 C11.02,58.44 11.03,58.44 11.03,58.45 C11.04,58.47 11.06,58.48 11.06,58.49 C11.37,58.83 11.69,59.17 12.01,59.51 C12.11,59.61 12.22,59.72 12.32,59.82 C12.57,60.08 12.82,60.33 13.08,60.58 C13.19,60.68 13.29,60.78 13.39,60.88 C13.73,61.21 14.07,61.53 14.43,61.85 C14.44,61.86 14.44,61.86 14.45,61.87 C14.51,61.92 14.57,61.97 14.62,62.02 C14.93,62.3 15.25,62.57 15.57,62.84 C15.69,62.95 15.82,63.05 15.96,63.16 C16.22,63.37 16.48,63.58 16.75,63.79 C16.88,63.9 17.02,64.01 17.16,64.12 C17.45,64.34 17.76,64.55 18.05,64.77 C18.16,64.85 18.26,64.93 18.36,65.01 C18.39,65.03 18.42,65.05 18.45,65.07 C18.73,65.27 19.02,65.46 19.31,65.65 C19.44,65.73 19.56,65.82 19.68,65.9 C20.12,66.19 20.57,66.47 21.03,66.75 C21.15,66.82 21.27,66.89 21.4,66.97 C21.73,67.17 22.07,67.36 22.41,67.55 C22.6,67.65 22.79,67.75 22.96,67.85 C23.21,67.98 23.44,68.11 23.69,68.24 C23.74,68.27 23.8,68.29 23.86,68.32 C23.95,68.37 24.05,68.42 24.15,68.47 C24.53,68.66 24.91,68.84 25.29,69.02 C25.37,69.06 25.45,69.1 25.54,69.13 C25.98,69.33 26.43,69.52 26.88,69.71 C26.99,69.76 27.1,69.8 27.21,69.84 C27.63,70.01 28.06,70.17 28.47,70.33 C28.53,70.35 28.58,70.37 28.63,70.39 C29.1,70.56 29.57,70.72 30.04,70.87 C30.15,70.9 30.26,70.94 30.38,70.97 C30.86,71.12 31.33,71.3 31.83,71.4 C63.52,77.56 73.03,52.79 73.03,52.79 C65.17,62.79 51.39,65.3 38.4,62.19 C37.91,62.07 37.43,61.91 36.95,61.76 C36.83,61.72 36.71,61.68 36.59,61.65 C36.13,61.5 35.66,61.34 35.2,61.18 C35.14,61.16 35.07,61.14 35.01,61.11 C34.6,60.96 34.19,60.8 33.78,60.64 C33.66,60.59 33.56,60.55 33.44,60.5 C32.99,60.32 32.55,60.13 32.12,59.93 C32.02,59.89 31.94,59.85 31.85,59.81 C31.47,59.63 31.1,59.46 30.73,59.27 C30.62,59.22 30.51,59.17 30.4,59.11 C30.11,58.96 29.82,58.8 29.53,58.65 C29.34,58.54 29.15,58.45 28.96,58.34 C28.61,58.15 28.27,57.95 27.92,57.75 C27.81,57.68 27.69,57.62 27.58,57.55 C27.12,57.28 26.67,56.99 26.22,56.71 C26.1,56.63 25.98,56.54 25.86,56.46 C25.54,56.25 25.22,56.03 24.9,55.81 C24.79,55.74 24.69,55.66 24.6,55.59 C24.29,55.37 23.99,55.14 23.69,54.92 C23.55,54.82 23.42,54.72 23.29,54.61 C23.01,54.39 22.74,54.17 22.48,53.95 C22.36,53.85 22.23,53.75 22.11,53.65 C21.77,53.36 21.43,53.07 21.09,52.77 C21.06,52.74 21.02,52.71 20.98,52.67 C20.62,52.34 20.27,52.01 19.91,51.68 C19.81,51.58 19.71,51.48 19.61,51.38 C19.35,51.13 19.09,50.87 18.85,50.61 C18.74,50.51 18.64,50.41 18.54,50.3 C18.23,49.97 17.91,49.63 17.6,49.29 C17.58,49.27 17.57,49.26 17.56,49.24 C17.23,48.88 16.92,48.51 16.61,48.13 C16.52,48.03 16.44,47.93 16.35,47.83 C16.13,47.54 15.9,47.25 15.67,46.96 C15.58,46.86 15.5,46.75 15.42,46.64 C15.14,46.28 14.88,45.93 14.63,45.56 C7.51,35.61 5.07,21.97 10.97,10.87" id="Shape"></path>
            <path d="M26.29,9.6 C21.46,16.38 21.61,25.53 25.23,32.8 C25.84,34.02 26.52,35.2 27.29,36.33 C27.99,37.36 28.76,38.58 29.71,39.41 C30.05,39.79 30.39,40.16 30.75,40.53 C30.85,40.62 30.93,40.71 31.03,40.81 C31.38,41.16 31.74,41.5 32.11,41.84 C32.13,41.85 32.14,41.87 32.15,41.88 C32.16,41.88 32.16,41.89 32.16,41.89 C32.56,42.26 32.99,42.61 33.41,42.96 C33.51,43.03 33.61,43.11 33.7,43.19 C34.13,43.52 34.57,43.86 35.02,44.17 C35.03,44.18 35.05,44.19 35.06,44.2 C35.26,44.34 35.46,44.48 35.66,44.61 C35.76,44.67 35.85,44.74 35.95,44.8 C36.27,45.01 36.6,45.22 36.93,45.41 C36.98,45.44 37.02,45.47 37.07,45.49 C37.36,45.66 37.65,45.82 37.93,45.99 C38.03,46.05 38.14,46.1 38.24,46.15 C38.44,46.26 38.64,46.37 38.84,46.47 C38.87,46.49 38.9,46.5 38.93,46.51 C39.35,46.72 39.77,46.93 40.19,47.12 C40.28,47.16 40.38,47.2 40.47,47.24 C40.81,47.39 41.16,47.53 41.51,47.67 C41.66,47.73 41.81,47.79 41.95,47.84 C42.26,47.96 42.58,48.07 42.91,48.18 C43.05,48.23 43.19,48.28 43.34,48.32 C43.79,48.47 44.24,48.65 44.72,48.74 C69.19,53.08 75.06,34.27 75.06,34.27 C69.87,41.56 59.96,44.95 49.44,42.09 C48.98,41.96 48.52,41.82 48.06,41.67 C47.92,41.63 47.78,41.58 47.64,41.53 C47.32,41.42 46.99,41.3 46.68,41.19 C46.53,41.13 46.39,41.08 46.25,41.02 C45.9,40.89 45.55,40.74 45.21,40.59 C45.12,40.55 45.02,40.51 44.93,40.47 C44.5,40.28 44.07,40.07 43.66,39.86 C43.44,39.76 43.23,39.64 43.01,39.53 C42.89,39.47 42.77,39.4 42.65,39.33 C42.37,39.18 42.11,39.02 41.84,38.87 C41.78,38.83 41.71,38.79 41.65,38.76 C41.32,38.56 40.99,38.36 40.67,38.15 C40.58,38.09 40.48,38.02 40.38,37.95 C40.16,37.81 39.95,37.66 39.75,37.52 C39.3,37.21 38.86,36.87 38.44,36.54 C38.34,36.46 38.24,36.38 38.14,36.3 C33.57,32.6 29.97,27.58 28.29,21.92 C26.53,16.04 27,9.48 30.23,4.18" id="Shape"></path>
            <path d="M43.1,3.8 C40.3,7.92 40.03,13.03 41.97,17.58 C44.02,22.41 48.21,26.2 53.11,28 C53.31,28.07 53.51,28.14 53.72,28.21 C53.81,28.24 53.9,28.27 53.98,28.3 C54.27,28.39 54.56,28.5 54.86,28.55 C68.4,31.17 72.07,21.6 73.04,20.2 C69.83,24.83 64.42,25.94 57.79,24.33 C57.27,24.2 56.69,24.02 56.19,23.84 C55.55,23.61 54.91,23.35 54.28,23.05 C53.1,22.49 51.98,21.8 50.94,21.01 C45,16.51 41.32,7.92 45.19,0.92" id="Shape"></path>
        </g>
    </g>
</svg>