<?xml version="1.0" standalone="no"?>
<!DOCTYPE svg PUBLIC "-//W3C//DTD SVG 20010904//EN"
 "http://www.w3.org/TR/2001/REC-SVG-20010904/DTD/svg10.dtd">
<svg version="1.0" xmlns="http://www.w3.org/2000/svg"
 width="769.000000pt" height="769.000000pt" viewBox="0 0 769.000000 769.000000"
 preserveAspectRatio="xMidYMid meet">
<metadata>
Created by potrace 1.11, written by Peter Selinger 2001-2013
</metadata>
<g transform="translate(0.000000,769.000000) scale(0.100000,-0.100000)"
fill="#000000" stroke="none">
<path d="M3735 7498 c-272 -18 -553 -139 -825 -356 -422 -337 -854 -963 -1190
-1725 -40 -92 -77 -167 -82 -167 -4 0 -99 -16 -210 -34 -450 -77 -804 -180
-941 -274 -59 -41 -109 -103 -144 -178 -25 -53 -28 -73 -31 -184 -2 -72 3
-191 13 -279 39 -376 158 -934 226 -1062 61 -113 186 -210 309 -238 25 -6 88
-11 141 -11 l96 0 6 -152 c13 -321 72 -613 181 -900 310 -815 1008 -1440 1858
-1663 264 -69 358 -80 693 -80 266 0 315 3 429 23 461 80 842 241 1201 507
672 497 1068 1258 1102 2113 l6 152 96 0 c165 0 270 40 372 141 74 74 110 150
154 329 116 463 196 1044 166 1205 -21 117 -96 229 -195 292 -150 96 -630 224
-1057 283 l-87 12 -53 121 c-417 960 -937 1648 -1467 1945 -256 143 -492 199
-767 180z m347 -276 c502 -136 991 -642 1441 -1492 77 -147 210 -430 204 -437
-3 -2 -83 3 -178 11 -219 20 -520 36 -667 36 -197 0 -344 -46 -472 -146 l-59
-46 -100 36 c-306 108 -589 101 -896 -24 -29 -12 -34 -10 -97 37 -127 97 -230
131 -418 140 -136 6 -457 -9 -724 -33 -92 -8 -170 -13 -173 -11 -6 7 146 326
227 477 455 847 948 1342 1455 1461 111 26 346 21 457 -9z m-1195 -2297 c98
-29 177 -125 202 -245 24 -115 51 -340 57 -465 9 -195 -21 -301 -114 -391 -43
-42 -92 -68 -232 -124 -321 -128 -696 -219 -1090 -264 -168 -20 -158 -20 -154
7 45 299 109 604 184 877 49 181 167 549 180 563 4 4 78 14 166 23 383 35 718
43 801 19z m2608 -9 c94 -9 193 -18 221 -22 l51 -6 76 -236 c85 -261 129 -419
182 -652 36 -156 105 -526 105 -563 0 -18 -5 -19 -67 -12 -467 47 -898 151
-1251 300 -135 57 -197 108 -242 198 -48 98 -56 190 -36 392 23 222 51 392 75
447 34 81 100 139 191 169 37 13 498 2 695 -15z m-3868 -80 c-3 -7 -23 -70
-43 -140 -21 -69 -41 -126 -45 -126 -4 0 -114 38 -245 84 l-239 84 40 11 c149
40 446 99 504 100 24 1 32 -3 28 -13z m4645 -21 c166 -32 325 -68 333 -77 4
-4 -459 -167 -463 -163 -2 2 -23 64 -47 139 -39 124 -41 136 -24 136 10 0 101
-16 201 -35z m-2302 -111 c59 -32 89 -66 122 -140 19 -43 21 -61 18 -154 -10
-246 -4 -411 19 -505 42 -171 129 -309 254 -402 121 -90 412 -211 712 -298
339 -97 727 -165 1138 -200 l77 -7 0 -147 c0 -594 -253 -1201 -689 -1653 -398
-413 -915 -673 -1481 -743 -161 -19 -449 -19 -610 0 -831 103 -1551 617 -1920
1370 -166 338 -250 684 -250 1031 0 130 2 144 18 144 81 0 434 42 632 76 502
85 1053 268 1265 419 127 90 219 225 266 390 22 75 23 98 24 365 0 318 1 323
71 400 62 68 118 91 215 86 49 -2 79 -10 119 -32z m-2865 -620 c165 -20 301
-38 303 -39 1 -1 -16 -91 -37 -201 -22 -109 -47 -253 -57 -320 l-17 -121 -133
-6 c-171 -8 -214 5 -249 73 -26 51 -150 633 -139 652 3 4 10 5 17 3 7 -2 147
-20 312 -41z m5795 31 c0 -61 -123 -611 -147 -658 -9 -17 -32 -36 -58 -48 -38
-17 -58 -18 -174 -13 l-131 7 -5 31 c-3 17 -12 76 -20 131 -8 55 -31 184 -52
288 -20 103 -34 189 -32 191 2 2 139 22 304 44 165 22 303 40 308 41 4 0 7 -6
7 -14z"/>
</g>
</svg>
