<?xml version="1.0" encoding="UTF-8"?>
<svg width="136px" height="34px" viewBox="0 0 136 34" version="1.1" xmlns="http://www.w3.org/2000/svg" xmlns:xlink="http://www.w3.org/1999/xlink">
    <!-- Generator: Sketch 42 (36781) - http://www.bohemiancoding.com/sketch -->
    <title>egghead-logo-white</title>
    <desc>Created with Sketch.</desc>
    <defs></defs>
    <g id="Page-1" stroke="none" stroke-width="1" fill="none" fill-rule="evenodd">
        <g id="egghead-logo-white" fill-rule="nonzero">
            <path d="M16.5558915,33.984186 C9.66657976,33.9926976 3.98351441,28.5920458 3.64116279,21.7112403 L3.64116279,21.6862016 C2.38303192,21.5279061 1.35052337,20.6146539 1.03976744,19.3852713 C0.678682171,17.9725581 0.191085271,15.8600775 0.131782946,13.8306202 C0.0941562965,12.6563412 0.771488626,11.5762567 1.84496124,11.0987597 C2.89922481,10.6256589 4.40155039,10.2395349 6.29658915,9.94565891 C7.35744186,7.49581395 8.60806202,5.36620155 9.93116279,3.76108527 C11.9922481,1.26511628 14.2206977,0 16.5558915,0 C18.8910853,0 21.1182171,1.26511628 23.1753488,3.76108527 C24.4931783,5.36620155 25.7490698,7.49317829 26.8072868,9.93775194 C28.6891473,10.2224031 30.190155,10.6111628 31.2734109,11.0934884 C32.3458029,11.5694017 33.0231311,12.6473956 32.9865891,13.8200775 C32.9286047,15.8613953 32.4410078,17.973876 32.0799225,19.3852713 C31.7691013,20.6163866 30.7345802,21.5305537 29.4745736,21.6875194 L29.4745736,21.7112403 C29.4025988,23.1052225 29.1062341,24.478468 28.5968992,25.778062 C26.6512724,30.730375 21.871415,33.9859698 16.5506202,33.9828682 L16.5558915,33.984186 Z" id="Shape" fill="#FFFFFF"></path>
            <path d="M16.5479845,2.14937984 C22.5309302,2.14937984 27.3818605,15.0100775 27.3818605,20.9943411 C27.3818605,26.9780895 22.531074,31.828876 16.5473256,31.828876 C10.5635772,31.828876 5.7127907,26.9780895 5.7127907,20.9943411 C5.71410853,15.0100775 10.5650388,2.14937984 16.5479845,2.14937984 Z" id="Shape" fill="#FCFBFA"></path>
            <path d="M30.2863566,12.5286047 L25.8663566,14.0875969 C25.8663566,14.0875969 26.5503101,16.1671318 26.5568992,16.1829457 C26.5634884,16.1987597 30.9597674,15.6162791 30.9597674,15.6162791 L30.2863566,12.5286047 Z" id="Shape" fill="#252526"></path>
            <path d="M2.81093023,12.5286047 L7.23093023,14.0875969 C7.23093023,14.0875969 6.54697674,16.1671318 6.5403876,16.1829457 C6.53379845,16.1987597 2.13751938,15.6162791 2.13751938,15.6162791 L2.81093023,12.5286047 Z" id="Shape" fill="#252526"></path>
            <path d="M12.000155,12.1596124 C12.6890693,12.1436623 13.2839255,12.6389068 13.3931008,13.3193023 C13.5332893,14.072218 13.6257218,14.8332459 13.669845,15.5978295 C13.6739811,15.8119229 13.6545358,16.0258211 13.6118605,16.2356589 C13.5565116,15.6848062 13.4800775,15.1603101 13.3944186,14.7043411 C13.2852434,14.0239456 12.6903872,13.528701 12.0014729,13.5446512 C10.340232,13.5610133 8.68187867,13.6869196 7.0372093,13.9215504 C7.19271318,13.437907 7.36007752,12.9529457 7.53930233,12.471938 C9.01871747,12.2791955 10.5083155,12.1749016 12.000155,12.1596124 Z" id="Shape" fill="#E0E0E0"></path>
            <path d="M27.362093,20.5133333 C23.46,20.3117054 20.1272093,19.0637209 19.3747287,18.6169767 C18.7882946,18.3362791 18.0397674,17.741938 17.8249612,16.2554264 C17.6813178,17.8934884 17.9896899,19.3852713 19.5275969,20.121938 C19.6409302,20.1904651 22.5849612,21.6466667 27.3357364,21.8970543 C27.3607752,21.5992248 27.3739535,21.2987597 27.3739535,20.9943411 C27.3726357,20.8388372 27.3686822,20.678062 27.362093,20.5133333 Z" id="Shape" fill="#E0E0E0"></path>
            <path d="M5.74573643,20.5133333 C9.64782946,20.3117054 12.9806202,19.0637209 13.7331008,18.6169767 C14.3195349,18.3362791 15.068062,17.741938 15.2828682,16.2554264 C15.4265116,17.8934884 15.1181395,19.3852713 13.5802326,20.121938 C13.4668992,20.1904651 10.5228682,21.6466667 5.77209302,21.8970543 C5.74705426,21.5992248 5.73387597,21.2987597 5.73387597,20.9943411 C5.7351938,20.8388372 5.73914729,20.678062 5.74573643,20.5133333 Z" id="Shape" fill="#E0E0E0"></path>
            <path d="M21.0852713,12.1596124 C20.396357,12.1436623 19.8015008,12.6389068 19.6923256,13.3193023 C19.5521371,14.072218 19.4597046,14.8332459 19.4155814,15.5978295 C19.4114453,15.8119229 19.4308906,16.0258211 19.4735659,16.2356589 C19.5289147,15.6848062 19.6053488,15.1603101 19.6910078,14.7043411 C19.800183,14.0239456 20.3950392,13.528701 21.0839535,13.5446512 C22.7451944,13.5610133 24.4035477,13.6869196 26.0482171,13.9215504 C25.8927132,13.437907 25.7253488,12.9529457 25.546124,12.471938 C24.0667089,12.2791955 22.5771108,12.1749016 21.0852713,12.1596124 L21.0852713,12.1596124 Z" id="Shape" fill="#E0E0E0"></path>
            <path d="M7.07147287,10.988062 C8.13496124,8.40775194 9.41193798,6.17534884 10.7613953,4.53069767 C12.5997674,2.30093023 14.5462016,1.17023256 16.5453488,1.17023256 C18.5444961,1.17023256 20.4909302,2.30093023 22.3293023,4.52937984 C23.684031,6.17139535 24.9649612,8.40379845 26.0192248,10.9867442 L26.0706202,11.1185271 L25.9388372,11.1000775 C25.5632558,11.05 25.2575194,11.0144186 24.8845736,10.9682946 L24.8384496,10.9682946 L24.82,10.926124 C23.6234109,8.13232558 21.5807752,4.48325581 18.9411628,2.95852713 C18.2182888,2.51847056 17.3914885,2.27834374 16.5453488,2.26271318 C15.6992092,2.27834374 14.8724089,2.51847056 14.1495349,2.95852713 C11.5165116,4.48062016 9.47914729,8.11255814 8.27333333,10.9221705 L8.25488372,10.9643411 L8.20875969,10.9643411 C7.83317829,11.003876 7.52744186,11.0407752 7.15449612,11.096124 L7.02271318,11.1145736 L7.07147287,10.988062 Z" id="Shape" fill="#56555C"></path>
            <path d="M27.485969,19.163876 C27.192093,19.155969 26.8955814,19.1441085 26.6043411,19.1269767 L26.5134109,19.1269767 L26.5015504,19.0360465 C26.2379845,16.9815504 25.6475969,14.5765116 24.827907,12.2650388 L24.7751938,12.0924031 L24.9531008,12.116124 C25.2878295,12.1609302 25.6120155,12.2110078 25.9282946,12.2637209 L25.9928682,12.2742636 L26.0139535,12.3362016 C26.8046512,14.6437209 27.3647287,17.0250388 27.6045736,19.0413178 L27.6190698,19.1731008 L27.485969,19.163876 Z" id="Shape" fill="#56555C"></path>
            <path d="M26.52,13.9597674 C26.3618605,13.4181395 26.1905426,12.8765116 26.0073643,12.3375194 L25.9862791,12.2755814 L25.9217054,12.2650388 C25.6106977,12.2123256 25.2825581,12.1622481 24.9465116,12.1174419 L24.7751938,12.0924031 L24.8344961,12.2610853 C25.0163566,12.7737209 25.1863566,13.2903101 25.3444961,13.8082171 C25.9072093,13.8727907 26.2248062,13.9189147 26.52,13.9597674 Z" id="Shape" fill="#252526"></path>
            <path d="M5.57178295,18.9951938 C5.81162791,16.9789147 6.37697674,14.5975969 7.1624031,12.2900775 L7.18348837,12.2281395 L7.24806202,12.2162791 C7.55906977,12.1635659 7.8872093,12.1134884 8.22325581,12.0686822 L8.40116279,12.0449612 L8.34186047,12.2136434 C7.52348837,14.5251163 6.92914729,16.9288372 6.66821705,18.9846512 L6.65635659,19.0755814 L6.56542636,19.0755814 C6.27286822,19.0927132 5.97635659,19.1045736 5.68379845,19.1124806 L5.5520155,19.1124806 L5.57178295,18.9951938 Z" id="Shape" fill="#56555C"></path>
            <path d="M7.24806202,12.2162791 L7.18348837,12.2268217 L7.1624031,12.2887597 C6.97922481,12.8277519 6.80790698,13.3720155 6.64976744,13.9136434 C7.19930233,13.8437984 7.35875969,13.8517054 7.81868217,13.8029457 C7.98077519,13.275814 8.15472868,12.7394574 8.34581395,12.2136434 L8.40511628,12.0449612 L8.2272093,12.0686822 C7.8872093,12.1148062 7.55906977,12.1648837 7.24806202,12.2162791 Z" id="Shape" fill="#252526"></path>
            <path d="M16.5479845,32.802093 C11.694896,32.8022691 7.33534456,29.8345754 5.55596899,25.3194574 C4.95799275,23.7892994 4.68165516,22.152358 4.74418605,20.5106977 L4.74418605,20.4368992 L4.8179845,20.4368992 C5.2027907,20.4276744 5.46635659,20.4171318 5.74046512,20.4026357 L5.82612403,20.4026357 L5.82612403,20.4882946 C5.75499425,21.988044 5.99875391,23.486066 6.54170543,24.8858915 C7.86924238,28.3000404 10.8471983,30.8007254 14.4394718,31.517899 C18.0317454,32.2350725 21.7416311,31.0695707 24.2783721,28.4268992 C25.259722,27.4091145 26.0280863,26.205717 26.5384496,24.8872093 C27.0815146,23.4874147 27.3252782,21.9893685 27.254031,20.4896124 L27.254031,20.4039535 L27.3396899,20.4039535 C27.7231783,20.4237209 27.9867442,20.4316279 28.2621705,20.4382171 L28.335969,20.4382171 L28.335969,20.5120155 C28.4037876,22.1510728 28.133748,23.7865621 27.5426357,25.3168217 C25.7672415,29.8356632 21.4057149,32.8062701 16.5506202,32.8034109 L16.5479845,32.802093 Z" id="Shape" fill="#56555C"></path>
            <path d="M5.86302326,21.8983721 C5.82462103,21.4276159 5.81493901,20.9549572 5.83403101,20.4830233 L5.83403101,20.3973643 L5.74837209,20.3973643 C5.47162791,20.4118605 5.20806202,20.4224031 4.82589147,20.4316279 L4.75209302,20.4316279 L4.75209302,20.5054264 C4.73584656,20.9787449 4.74640609,21.4526037 4.78372093,21.9247287 L4.81930233,21.9247287 C5.17511628,21.9247287 5.52302326,21.9089147 5.85379845,21.8931008 L5.86302326,21.8983721 Z" id="Shape" fill="#252526"></path>
            <path d="M28.3451938,20.4368992 L28.2713953,20.4368992 C27.9920155,20.4368992 27.7284496,20.4224031 27.3489147,20.4026357 L27.2632558,20.4026357 L27.2632558,20.4882946 C27.2822592,20.9558158 27.2730176,21.4240579 27.2355814,21.8904651 L28.3162016,21.9365891 C28.3535446,21.4644656 28.3641041,20.9906052 28.3478295,20.5172868 L28.3451938,20.4368992 Z" id="Shape" fill="#252526"></path>
            <path d="M28.954031,20.678062 C26.6953336,20.6867362 24.4453341,20.397843 22.262093,19.8188372 C21.322593,19.571014 20.4073808,19.2388912 19.5275969,18.8265116 L19.5065116,18.8106977 C17.6615504,17.9290698 17.5943411,16.1605426 17.7656589,14.5488372 C17.8091473,14.1416279 17.6602326,13.6026357 17.2306202,13.3166667 C16.821328,13.0434536 16.2878193,13.0434536 15.8785271,13.3166667 C15.4489147,13.6013178 15.3,14.1389922 15.3434884,14.5448837 C15.5148062,16.157907 15.4423256,17.9264341 13.6026357,18.808062 L13.5815504,18.8186047 C12.7022012,19.2347719 11.7869632,19.5704327 10.8470543,19.8214729 C8.66381028,20.4004636 6.41381271,20.6893565 4.15511628,20.6806977 L4.14457364,20.6806977 C3.20752324,20.6693432 2.3957571,20.028048 2.16782946,19.1190698 C1.81728682,17.7656589 1.35077519,15.7388372 1.29674419,13.8372093 C1.27228856,13.0758538 1.71081832,12.375352 2.40635659,12.0647287 C4.94713178,10.9379845 10.0893023,10.5136434 12.2821705,10.5426357 C13.0470953,10.5369384 13.7818535,10.8406322 14.3195349,11.3847287 C15.0213314,11.0559284 15.7849315,10.8798512 16.559845,10.8681395 C17.3346674,10.8793982 18.0982713,11.0550271 18.800155,11.3834109 C19.3336194,10.8428486 20.0622426,10.5398098 20.8217054,10.5426357 C22.1395349,10.5228682 27.8062016,10.7679845 30.7054264,12.0581395 C31.399714,12.3659614 31.8384123,13.0636063 31.8150388,13.8227132 C31.7610078,15.7282946 31.287907,17.7656589 30.9492248,19.1164341 C30.7212972,20.0254123 29.909531,20.6667076 28.9724806,20.678062 L28.954031,20.678062 Z M21.0984496,12.2439535 C20.447428,12.2289504 19.8850331,12.6963006 19.7806202,13.3390698 C19.6409952,14.0885274 19.5485653,14.8460124 19.503876,15.6070543 C19.4933333,16.4768217 19.8056589,17.0724806 20.4263566,17.3768992 C22.7496899,18.4127132 25.4499225,18.9253488 28.6812403,18.9411628 C28.9290996,18.9398102 29.1452184,18.7723181 29.2083721,18.5326357 C29.5154264,17.332093 29.9292248,15.5477519 29.9766667,13.9070543 C29.9819588,13.7499632 29.891178,13.6054444 29.7473643,13.5420155 C27.5426357,12.5510078 22.8195349,12.2123256 21.0984496,12.2386822 L21.0984496,12.2439535 Z M3.34860465,13.5393798 C3.20479096,13.6028087 3.11401018,13.7473276 3.11930233,13.9044186 C3.16674419,15.5411628 3.58054264,17.3307752 3.8875969,18.53 C3.94994019,18.7702177 4.1665533,18.9380928 4.41472868,18.9385271 C7.64868217,18.9227132 10.3449612,18.4113953 12.6762016,17.3729457 C13.2982171,17.069845 13.6092248,16.4728682 13.5986822,15.6004651 C13.5538298,14.8402433 13.4609572,14.0836178 13.3206202,13.3351163 C13.2162072,12.6923471 12.6538123,12.224997 12.0027907,12.24 C10.9999225,12.224186 5.84457364,12.4271318 3.34860465,13.5393798 Z" id="Shape" fill="#252526"></path>
            <path d="M47.7647287,19.4893798 C47.6345756,19.9474068 47.4302399,20.3810081 47.159845,20.7729457 C46.8842977,21.1776069 46.5436434,21.5338467 46.1517054,21.8272093 C45.7297486,22.1379574 45.2602276,22.378281 44.7613953,22.5388372 C44.1956293,22.7205614 43.6041915,22.8095663 43.01,22.8024031 C42.3068784,22.8056681 41.6091422,22.6797003 40.9515504,22.4307752 C40.3114982,22.1881847 39.7283088,21.8162893 39.2383721,21.3382946 C38.7297018,20.837397 38.3287832,20.2378129 38.0602326,19.5763566 C37.7597059,18.8277564 37.611848,18.0266358 37.6253488,17.2200775 C37.6145064,16.4425262 37.7587641,15.6706133 38.0496899,14.9494574 C38.3107059,14.3035084 38.6967515,13.7154829 39.1856589,13.2191473 C39.6564467,12.7471015 40.2151974,12.3719147 40.8303101,12.1148062 C41.4411466,11.8544331 42.0982336,11.7199678 42.7622481,11.7194574 C44.3893282,11.7194574 45.6557623,12.2026615 46.5615504,13.1690698 C47.4673385,14.135478 47.9175969,15.4563824 47.9123256,17.1317829 C47.9123256,17.3303359 47.9052972,17.517907 47.8912403,17.6944961 C47.8771835,17.8710853 47.870155,17.9734367 47.870155,18.0015504 L40.3993798,18.0015504 C40.4105304,18.3305562 40.4937544,18.6531055 40.6431783,18.9464341 C40.7869865,19.2303747 40.9812319,19.4857962 41.2164341,19.7002326 C41.4552915,19.9161661 41.7323996,20.0855597 42.0334884,20.1996899 C42.3518938,20.3214063 42.6902171,20.3826353 43.0310853,20.3802326 C43.6961499,20.3802326 44.2162532,20.2317571 44.5913953,19.9348062 C44.9664099,19.6373269 45.249659,19.2398645 45.4084496,18.7882946 L47.7647287,19.4893798 Z M45.1290698,16.0722481 C45.1142818,15.8143721 45.0605196,15.5602235 44.9696124,15.3184496 C44.8777357,15.0705811 44.7329265,14.8457221 44.5452713,14.6595349 C44.3377102,14.4578751 44.0922645,14.2993208 43.8231008,14.1930233 C43.495201,14.065873 43.1454754,14.0045254 42.793876,14.0124806 C42.4584916,14.0060591 42.1255909,14.0712016 41.8173643,14.2035659 C41.548843,14.3211398 41.304092,14.486838 41.0951938,14.6924806 C40.9034606,14.8817767 40.7488135,15.1052552 40.6392248,15.3513953 C40.5351823,15.5804439 40.4735641,15.8264703 40.4573643,16.0775194 L45.1290698,16.0722481 Z" id="Shape" fill="#FFFFFB"></path>
            <path d="M51.5468992,22.3767442 C51.6321619,22.9299529 51.9126491,23.4343623 52.3375969,23.7986822 C52.761938,24.1659173 53.3136693,24.3499742 53.9927907,24.3508527 C54.8836434,24.3508527 55.5697933,24.1211111 56.0512403,23.6616279 C56.5326873,23.2021447 56.7734109,22.4628424 56.7734109,21.4437209 L56.7734109,20.6793798 C56.5075563,21.0673478 56.1505171,21.3841126 55.7336434,21.6018605 C55.2521964,21.8777261 54.6297416,22.0156589 53.8662791,22.0156589 C53.2029359,22.0217796 52.5453935,21.8917064 51.9343411,21.6334884 C51.3541254,21.3888387 50.8302556,21.0277812 50.3951163,20.5726357 C49.9562576,20.1084915 49.6104552,19.5645125 49.3764341,18.970155 C48.8849708,17.6860872 48.88122,16.2664142 49.3658915,14.9797674 C49.5956901,14.3818052 49.933888,13.831396 50.3634884,13.3562016 C50.7903962,12.8887472 51.3089616,12.5141779 51.8868992,12.255814 C52.509169,11.9808729 53.183403,11.8433292 53.8636434,11.8525581 C54.6982687,11.8525581 55.3571835,12.0010336 55.8403876,12.2979845 C56.3235917,12.5949354 56.656124,12.9204393 56.8379845,13.2744961 L56.8379845,12.0396899 L59.554031,12.0396899 L59.554031,21.3567442 C59.5567382,22.0580544 59.4527584,22.7556968 59.2456589,23.4257364 C58.8489614,24.7609773 57.8700965,25.8454298 56.5823256,26.3763566 C55.8891473,26.6803359 55.054522,26.8323256 54.0784496,26.8323256 C53.411315,26.8411604 52.7474726,26.7373515 52.1148837,26.5252713 C51.5574261,26.3376423 51.0353612,26.057901 50.5703876,25.6976744 C50.1438019,25.3647589 49.7838847,24.9543191 49.5095349,24.487907 C49.2488841,24.0502014 49.0760983,23.5658638 49.0008527,23.0620155 L51.5468992,22.3767442 Z M54.3486047,19.596124 C55.0152943,19.6186845 55.6599947,19.356011 56.1210853,18.8739535 C56.5805685,18.393385 56.8103101,17.7494057 56.8103101,16.9420155 C56.8103101,16.1346253 56.5700258,15.4950388 56.0894574,15.0232558 C55.6307731,14.5581619 55.0017442,14.3010267 54.3486047,14.3116279 C54.0111137,14.3086612 53.6761399,14.3699315 53.3615504,14.4921705 C53.0634732,14.6096065 52.7939002,14.7893219 52.5708527,15.0193023 C52.3407371,15.2605236 52.1614738,15.5455523 52.0437209,15.8574419 C51.9127296,16.2029107 51.847907,16.569941 51.8526357,16.9393798 C51.8526357,17.7599483 52.0858915,18.4074419 52.5524031,18.8818605 C53.0260753,19.3588928 53.6766944,19.6176129 54.3486047,19.596124 L54.3486047,19.596124 Z" id="Shape" fill="#FFFFFB"></path>
            <path d="M63.4165891,22.3767442 C63.5018518,22.9299529 63.782339,23.4343623 64.2072868,23.7986822 C64.6316279,24.1659173 65.1833592,24.3499742 65.8624806,24.3508527 C66.7533333,24.3508527 67.4394832,24.1211111 67.9209302,23.6616279 C68.4023773,23.2021447 68.6431008,22.4628424 68.6431008,21.4437209 L68.6431008,20.6793798 C68.3772462,21.0673478 68.020207,21.3841126 67.6033333,21.6018605 C67.1218863,21.8777261 66.4994315,22.0156589 65.735969,22.0156589 C65.0726258,22.0217796 64.4150834,21.8917064 63.804031,21.6334884 C63.2238153,21.3888387 62.6999455,21.0277812 62.2648062,20.5726357 C61.8259476,20.1084915 61.4801451,19.5645125 61.246124,18.970155 C60.7546607,17.6860872 60.7509099,16.2664142 61.2355814,14.9797674 C61.46538,14.3818052 61.8035779,13.831396 62.2331783,13.3562016 C62.6597016,12.8888938 63.1778059,12.5143335 63.7552713,12.255814 C64.3775411,11.9808729 65.0517751,11.8433292 65.7320155,11.8525581 C66.5666408,11.8525581 67.2255556,12.0010336 67.7087597,12.2979845 C68.1919638,12.5949354 68.5244961,12.9204393 68.7063566,13.2744961 L68.7063566,12.0396899 L71.4224031,12.0396899 L71.4224031,21.3567442 C71.4251103,22.0580544 71.3211305,22.7556968 71.114031,23.4257364 C70.7173335,24.7609773 69.7384685,25.8454298 68.4506977,26.3763566 C67.7575194,26.6803359 66.9228941,26.8323256 65.9468217,26.8323256 C65.2796871,26.8411604 64.6158447,26.7373515 63.9832558,26.5252713 C63.4262606,26.3375081 62.9046508,26.057772 62.4400775,25.6976744 C62.0134918,25.3647589 61.6535746,24.9543191 61.3792248,24.487907 C61.1181122,24.0502997 60.9448768,23.5659567 60.8692248,23.0620155 L63.4165891,22.3767442 Z M66.2182946,19.596124 C66.8849842,19.6186845 67.5296846,19.356011 67.9907752,18.8739535 C68.4502584,18.393385 68.68,17.7494057 68.68,16.9420155 C68.68,16.1346253 68.4392765,15.4950388 67.9578295,15.0232558 C67.4991452,14.5581619 66.8701163,14.3010267 66.2169767,14.3116279 C65.8801166,14.310255 65.5460598,14.3728627 65.2325581,14.496124 C64.934481,14.61356 64.6649079,14.7932754 64.4418605,15.0232558 C64.2117449,15.2644771 64.0324816,15.5495057 63.9147287,15.8613953 C63.7837374,16.2068642 63.7189147,16.5738945 63.7236434,16.9433333 C63.7236434,17.7639018 63.9568992,18.4113953 64.4234109,18.885814 C64.8971226,19.3607163 65.5465588,19.6179141 66.2169767,19.596124 L66.2182946,19.596124 Z" id="Shape" fill="#FFFFFB"></path>
            <path d="M75.6262791,22.4821705 L73.0973643,22.4821705 L73.0973643,7.11627907 L75.6262791,7.11627907 L75.6262791,12.9147287 C75.9656576,12.5047473 76.4144085,12.1994871 76.9203876,12.0344186 C77.4121144,11.8635885 77.9285273,11.7745518 78.4490698,11.7708527 C79.0422278,11.7569988 79.6315633,11.8692959 80.178062,12.1003101 C80.6411128,12.3012731 81.0541696,12.6018416 81.3878295,12.9806202 C81.7151867,13.3648872 81.9576886,13.8139648 82.0994574,14.2984496 C82.2569901,14.8215329 82.3356073,15.3651906 82.3327132,15.9114729 L82.3327132,22.4821705 L79.5099225,22.4821705 L79.5099225,16.3911628 C79.5289608,15.85895 79.3683527,15.3358132 79.0539535,14.905969 C78.7499742,14.5097416 78.2584238,14.3116279 77.5793023,14.3116279 C76.984522,14.3116279 76.5175711,14.5062274 76.1784496,14.8954264 C75.832815,15.3005456 75.6377553,15.8126355 75.6262791,16.3450388 L75.6262791,22.4821705 Z" id="Shape" fill="#FFFFFB"></path>
            <path d="M93.6410078,19.4893798 C93.5108547,19.9474068 93.306519,20.3810081 93.036124,20.7729457 C92.7605767,21.1776069 92.4199225,21.5338467 92.0279845,21.8272093 C91.6060277,22.1379574 91.1365067,22.378281 90.6376744,22.5388372 C90.0719084,22.7205614 89.4804706,22.8095663 88.8862791,22.8024031 C88.1831575,22.8056681 87.4854212,22.6797003 86.8278295,22.4307752 C86.1877772,22.1881847 85.6045879,21.8162893 85.1146512,21.3382946 C84.6059809,20.837397 84.2050623,20.2378129 83.9365116,19.5763566 C83.6359849,18.8277564 83.4881271,18.0266358 83.5016279,17.2200775 C83.4907855,16.4425262 83.6350431,15.6706133 83.925969,14.9494574 C84.1869849,14.3035084 84.5730306,13.7154829 85.061938,13.2191473 C85.5327257,12.7471015 86.0914765,12.3719147 86.7065891,12.1148062 C87.3174257,11.8544331 87.9745127,11.7199678 88.6385271,11.7194574 C90.2656072,11.7194574 91.5320413,12.2026615 92.4378295,13.1690698 C93.3436176,14.135478 93.7943152,15.4563824 93.7899225,17.1317829 C93.7899225,17.3303359 93.7828941,17.517907 93.7688372,17.6944961 C93.7547804,17.8710853 93.7477519,17.9734367 93.7477519,18.0015504 L86.2756589,18.0015504 C86.2868095,18.3305562 86.3700335,18.6531055 86.5194574,18.9464341 C86.6632655,19.2303747 86.8575109,19.4857962 87.0927132,19.7002326 C87.3315706,19.9161661 87.6086787,20.0855597 87.9097674,20.1996899 C88.2281729,20.3214063 88.5664962,20.3826353 88.9073643,20.3802326 C89.5724289,20.3802326 90.0925323,20.2317571 90.4676744,19.9348062 C90.842689,19.6373269 91.1259381,19.2398645 91.2847287,18.7882946 L93.6410078,19.4893798 Z M91.0093023,16.0775194 C90.9945144,15.8196434 90.9407521,15.5654948 90.849845,15.3237209 C90.7579683,15.0758524 90.613159,14.8509934 90.4255039,14.6648062 C90.2179428,14.4631465 89.972497,14.3045921 89.7033333,14.1982946 C89.3754336,14.0711443 89.025708,14.0097968 88.6741085,14.0177519 C88.3387241,14.0113304 88.0058235,14.0764729 87.6975969,14.2088372 C87.4298507,14.3253644 87.1855772,14.4897019 86.9767442,14.6937984 C86.785011,14.8830946 86.6303639,15.1065731 86.5207752,15.3527132 C86.4178017,15.5802085 86.3566445,15.8243906 86.3402326,16.0735659 L91.0093023,16.0775194 Z" id="Shape" fill="#FFFFFB"></path>
            <path d="M94.7268992,19.6356589 C94.7046925,18.810104 95.0365722,18.0144559 95.6388372,17.4493798 C95.9257069,17.1780522 96.2603758,16.9622376 96.6258915,16.8128682 C97.0180053,16.6523186 97.4275609,16.5382092 97.8462016,16.4728682 L100.414651,16.0906977 C100.711602,16.0485271 100.916744,15.9606718 101.030078,15.8271318 C101.143091,15.6936873 101.203537,15.5235954 101.200078,15.3487597 C101.201021,14.9821818 101.042252,14.6333724 100.765194,14.3933333 C100.475271,14.1244961 100.03292,13.9900775 99.4381395,13.9900775 C98.8152455,13.9900775 98.3377519,14.1596382 98.0056589,14.4987597 C97.684191,14.8154506 97.4849001,15.2355016 97.4429457,15.6848062 L94.9390698,15.1576744 C94.9877671,14.726975 95.1174332,14.3093607 95.3212403,13.9268217 C95.5398936,13.507777 95.8348712,13.1332449 96.1910078,12.8224806 C96.5926345,12.4793073 97.0529075,12.2114471 97.5496899,12.0317829 C98.1481761,11.8161487 98.7810155,11.7116431 99.4170543,11.7234109 C100.131357,11.7062972 100.842908,11.8178956 101.517674,12.0528682 C102.044468,12.2365133 102.526071,12.530327 102.930388,12.9147287 C103.288758,13.2681692 103.55953,13.7005022 103.721085,14.1772093 C103.884377,14.6625421 103.966742,15.1714253 103.964884,15.6834884 L103.964884,20.8230233 C103.964884,21.1059173 103.978941,21.4063824 104.007054,21.7244186 C104.035168,22.0424548 104.063721,22.2937209 104.092713,22.4782171 L101.497907,22.4782171 C101.462813,22.2850884 101.438178,22.090205 101.424109,21.8944186 C101.403023,21.6466667 101.392481,21.4239535 101.392481,21.2262791 C101.09087,21.667468 100.695838,22.0368545 100.235426,22.3082171 C99.7328941,22.6192248 99.0928682,22.7747287 98.3153488,22.7747287 C97.8041244,22.7826996 97.2960579,22.6932513 96.8182946,22.5111628 C96.3991262,22.3511671 96.0137762,22.1137879 95.6823256,21.8113953 C95.3787748,21.5318621 95.136855,21.1920971 94.9720155,20.8137984 C94.8095536,20.4423135 94.7260827,20.0411145 94.7268992,19.6356589 L94.7268992,19.6356589 Z M98.9083721,20.6754264 C99.1987602,20.6766149 99.4879144,20.6375879 99.7675969,20.5594574 C100.03981,20.4836975 100.290661,20.345639 100.50031,20.1562016 C100.723127,19.9494417 100.896923,19.6955015 101.008992,19.4129457 C101.1478,19.0434842 101.212723,18.6503652 101.200078,18.2558915 L101.200078,17.7906977 L98.8437984,18.1517829 C98.5058625,18.1964566 98.186727,18.3332289 97.9213178,18.5471318 C97.6735659,18.7518346 97.5496899,19.0593282 97.5496899,19.4696124 C97.5503937,19.7824439 97.6722527,20.0828406 97.8896899,20.3077519 C98.115478,20.5546253 98.4550388,20.678062 98.9083721,20.678062 L98.9083721,20.6754264 Z" id="Shape" fill="#FFFFFB"></path>
            <path d="M115.837209,20.5937209 C115.837209,20.9451421 115.844238,21.2965633 115.858295,21.6479845 C115.872351,21.9994057 115.893437,22.2787855 115.92155,22.486124 L113.23186,22.486124 C113.195239,22.3185261 113.170577,22.148537 113.158062,21.9774419 C113.136977,21.7507752 113.126434,21.5170801 113.126434,21.2763566 C112.854215,21.7161956 112.469279,22.0751963 112.01155,22.316124 C111.453697,22.6125345 110.828346,22.7587677 110.196899,22.7404651 C109.489273,22.7489439 108.787829,22.6079365 108.13845,22.3266667 C107.529938,22.0608556 106.984005,21.6702621 106.535969,21.180155 C106.076874,20.6723174 105.719038,20.0814396 105.481705,19.4393023 C104.976152,18.037563 104.972426,16.5038691 105.471163,15.0996899 C105.701567,14.4629465 106.050833,13.8757679 106.500388,13.3693798 C107.725155,12.0704015 109.547068,11.5186107 111.286744,11.9197674 C111.58487,11.9896915 111.873712,12.0945237 112.147287,12.232093 C112.362076,12.3419161 112.559284,12.4831598 112.732403,12.6511628 C112.864748,12.7775943 112.975977,12.9244169 113.06186,13.0860465 L113.06186,7.11627907 L115.837209,7.11627907 L115.837209,20.5937209 Z M107.942093,17.239845 C107.942093,18.1737468 108.186331,18.9025065 108.674806,19.426124 C109.155948,19.9276085 109.820843,20.2111143 110.515814,20.2111143 C111.210785,20.2111143 111.87568,19.9276085 112.356822,19.426124 C112.852326,18.8989922 113.100078,18.1632041 113.100078,17.2187597 C113.100078,16.2848579 112.852326,15.5666408 112.356822,15.0641085 C111.870014,14.5799236 111.210768,14.3090076 110.524173,14.3109848 C109.837577,14.3129621 109.179902,14.5876705 108.695891,15.0746512 C108.195995,15.5850904 107.946047,16.3068217 107.946047,17.239845 L107.942093,17.239845 Z" id="Shape" fill="#FFFFFB"></path>
            <path d="M117.286822,21.3857364 C117.281624,21.0990199 117.393447,20.8225572 117.596512,20.6200775 C117.79362,20.4121866 118.069156,20.2969017 118.355581,20.3024806 C118.953847,20.3024806 119.438837,20.7874708 119.438837,21.3857364 C119.444416,21.6721617 119.329131,21.9476974 119.12124,22.1448062 C118.918761,22.3478711 118.642298,22.4596933 118.355581,22.4544961 C118.071397,22.4580712 117.797807,22.3467573 117.596843,22.1457929 C117.395878,21.9448285 117.284564,21.6712383 117.28814,21.3870543 L117.286822,21.3857364 Z" id="Shape" fill="#FFFFFB"></path>
            <path d="M120.837054,10.0036434 C120.837054,9.15282521 121.526779,8.46310078 122.377597,8.46310078 C123.228415,8.46310078 123.91814,9.15282521 123.91814,10.0036434 C123.91814,10.8544616 123.228415,11.544186 122.377597,11.544186 C121.526779,11.544186 120.837054,10.8544616 120.837054,10.0036434 Z M121.082171,22.4703101 L121.082171,12.6142636 L123.673023,12.6142636 L123.673023,22.4689922 L121.082171,22.4703101 Z" id="Shape" fill="#FFFFFB"></path>
            <path d="M125.023798,17.5271318 C125.023798,14.7320155 126.982093,12.3651938 130.226589,12.3651938 C133.490853,12.3651938 135.449147,14.7372868 135.449147,17.5271318 C135.449147,20.3169767 133.490853,22.710155 130.226589,22.710155 C126.982093,22.7141085 125.023798,20.3275194 125.023798,17.5271318 Z M132.756822,17.5271318 C132.756822,15.9971318 131.85938,14.6700775 130.226589,14.6700775 C128.614884,14.6700775 127.722713,15.995814 127.722713,17.5271318 C127.722713,19.0782171 128.620155,20.4039535 130.226589,20.4039535 C131.858062,20.4092248 132.756822,19.0821705 132.756822,17.5271318 Z" id="Shape" fill="#FFFFFB"></path>
        </g>
    </g>
</svg>