<?xml version="1.0" encoding="UTF-8"?>
<svg width="16px" height="16px" viewBox="0 0 16 16" version="1.1" xmlns="http://www.w3.org/2000/svg" xmlns:xlink="http://www.w3.org/1999/xlink">
    <!-- Generator: Sketch 41.2 (35397) - http://www.bohemiancoding.com/sketch -->
    <title>js</title>
    <desc>Created with Sketch.</desc>
    <defs></defs>
    <g id="Page-1" stroke="none" stroke-width="1" fill="none" fill-rule="evenodd">
        <g id="js">
            <rect id="Rectangle-path" fill="#F0DB4F" x="0" y="0" width="16" height="16"></rect>
            <path d="M14.6901961,12.1830065 C14.572549,11.4535948 14.096732,10.8392157 12.6875817,10.269281 C12.1986928,10.0444444 11.6522876,9.88235294 11.4901961,9.51111111 C11.4326797,9.29411765 11.4248366,9.17385621 11.4614379,9.04313725 C11.5660131,8.61960784 12.0732026,8.48627451 12.4732026,8.60915033 C12.7320261,8.69542484 12.9777778,8.89411765 13.124183,9.2130719 C13.8143791,8.76601307 13.8143791,8.76862745 14.2954248,8.4627451 C14.1202614,8.18823529 14.0235294,8.0627451 13.9084967,7.94509804 C13.4928105,7.48235294 12.9281046,7.24183007 12.0235294,7.26013072 C11.8666667,7.28104575 11.7098039,7.30196078 11.5529412,7.32026144 C11.1006536,7.43529412 10.6718954,7.67058824 10.4183007,7.98954248 C9.66013072,8.8496732 9.87712418,10.3529412 10.7973856,10.972549 C11.7045752,11.654902 13.0379085,11.8091503 13.2104575,12.4470588 C13.3751634,13.2261438 12.6379085,13.4797386 11.903268,13.3908497 C11.3620915,13.2784314 11.0614379,13.0039216 10.7346405,12.5019608 C10.1359477,12.8496732 10.1359477,12.8496732 9.51895425,13.2026144 C9.66535948,13.5215686 9.81960784,13.6653595 10.0627451,13.9424837 C11.220915,15.1189542 14.1228758,15.0614379 14.6431373,13.2810458 C14.6640523,13.220915 14.8026144,12.8130719 14.6901961,12.1830065 Z M8.69803922,7.35424837 L7.20261438,7.35424837 C7.20261438,8.64575163 7.19738562,9.92941176 7.19738562,11.2235294 C7.19738562,12.0470588 7.23921569,12.8 7.10588235,13.0326797 C6.88627451,13.4875817 6.31895425,13.4300654 6.06013072,13.3437908 C5.79607843,13.2156863 5.6627451,13.0300654 5.50849673,12.7712418 C5.46666667,12.6954248 5.43267974,12.6379085 5.42222222,12.6352941 C5.01699346,12.8836601 4.61176471,13.1320261 4.20653595,13.3803922 C4.40784314,13.7960784 4.70588235,14.1568627 5.0875817,14.3895425 C5.65751634,14.7320261 6.42352941,14.8366013 7.22614379,14.6535948 C7.74901961,14.5019608 8.19869281,14.1856209 8.43398693,13.7071895 C8.77385621,13.0797386 8.70065359,12.3189542 8.69803922,11.4771242 C8.70588235,10.1019608 8.69803922,8.72941176 8.69803922,7.35424837 Z" id="Shape" fill="#323330"></path>
        </g>
    </g>
</svg>